<svg xmlns="http://www.w3.org/2000/svg" viewBox="0 0 538.58 153.07"><defs><style>.cls-1{fill:#201600;}.cls-2{fill:#be8f8e;}</style></defs><title>logotype</title><g id="Слой_2" data-name="Слой 2"><g id="Слой_1-2" data-name="Слой 1"><path class="cls-1" d="M422.23,48.89c-2.3,3.48-7.78,9.8-9.37,11.7s-3,3.59-4.24,5.06-2.22,2.67-2.94,3.6-1,1.39-.75,1.44a8.81,8.81,0,0,0,1.8-.9c1.08-.61,2.42-1.47,4-2.6s3.37-2.44,5.31-4S427,54.3,431,48a15.21,15.21,0,0,0,2-6.72,24.14,24.14,0,0,0,0-4.18,14,14,0,0,0-1.13-4.57,9.89,9.89,0,0,0-2.77-3.66,7.42,7.42,0,0,0-4.85-1.54A13.06,13.06,0,0,0,417,29.8a34.71,34.71,0,0,0-7.32,6.76,74.17,74.17,0,0,0-6.88,9.9,99.73,99.73,0,0,0-5.95,11.93,107.73,107.73,0,0,0-4.45,12.8q-.91,3.24-1.53,6.39c-.29.41-.68.91-1.16,1.49a24.43,24.43,0,0,1-2.09,2.2,15.69,15.69,0,0,1-2.85,2.1c.4-1.82.83-3.89,1.27-6.23A38.72,38.72,0,0,0,386.7,70a19.32,19.32,0,0,0-.71-5.24,11.48,11.48,0,0,0-2.34-4.39,12.1,12.1,0,0,0-4.13-3,14.78,14.78,0,0,0-15,2.15,28.51,28.51,0,0,0-6.93,8.42c-.63,1.13-1.19,2.32-1.73,3.53a6.58,6.58,0,0,0-1.44,1.95q-1.17,2-2.75,5.18t-3.41,6.7q-1.83,3.57-3.57,6.7a43.68,43.68,0,0,1-3.26,5.18q-1.53,2-2.55,2a1.38,1.38,0,0,1-.76-.36c-.31-.24-.46-1-.46-2.35a42.73,42.73,0,0,1,1.28-9.61c.84-3.62,1.85-7.13,3-10.54s2.31-6.41,3.47-9A19.67,19.67,0,0,1,348,62.5c.27-.27.47-.4.61-.36s.2-.12.2-.47a2.24,2.24,0,0,0-.71-1.41,7.38,7.38,0,0,0-2-1.46,15.46,15.46,0,0,0-3-1.2,13.26,13.26,0,0,0-4.07-.52l-.09,0c-3.65,4.31-5.58,9.71-7.62,15a63.09,63.09,0,0,0-2.61,8.09c-1.63.25-3.32.47-5.13.62a51.17,51.17,0,0,1-5.84-.2c.47-1.3.86-2.5,1.21-3.65.62-1.86,1.26-3.65,1.91-5.35,1.3-3.37,2.46-6.15,3.5-8.36a35.05,35.05,0,0,0,1.55-3.52c0-.35-.48-.73-1.45-1.15a18.69,18.69,0,0,0-3.39-1,20.51,20.51,0,0,0-3.75-.42,3.75,3.75,0,0,0-2.45.51,18.38,18.38,0,0,0-3.12,5.2c-.42.94-.84,1.93-1.25,3-.16.4-.31.81-.47,1.23h0s-1,2.41-2.33,6c-2.49,4.5-5.16,9-8,13.28C298,89,296.25,91.53,294.34,94c-1.21,1.57-2.48,3.12-3.82,4.58a1.64,1.64,0,0,1-1.15.5,2,2,0,0,1-1.74-1.39h0a2.38,2.38,0,0,1-.11-.38.44.44,0,0,1,0-.1.2.2,0,0,1,0-.07,5.64,5.64,0,0,1,0-.73v0c0-.51,0-1,0-1.37a26.39,26.39,0,0,1,.4-3.25,67.5,67.5,0,0,1,2.85-10.19,153,153,0,0,1,9-20.09l0,0,.11-.21a6.85,6.85,0,0,0,.31-.82c-1.32-1.71-4.64-2.78-7.2-3.59A4,4,0,0,0,288.09,59c-.52,1.13-1,2.27-1.51,3.41a2,2,0,0,0-.47.66l0,0c-2.89,6.5-6.06,12.95-9.47,19.2-1.71,3.13-3.46,6.23-5.37,9.21-1.21,1.9-2.47,3.77-3.82,5.53a1.49,1.49,0,0,1-1.15.6c-1,0-1.85-1.21-1.92-2.74a26.31,26.31,0,0,1,.4-3.26,68.69,68.69,0,0,1,2.85-10.19,151.06,151.06,0,0,1,9-20.08v0a2.26,2.26,0,0,0,.11-.22,5.1,5.1,0,0,0,.31-.82c-1.33-1.73-4.71-2.8-7.28-3.62A3.93,3.93,0,0,0,265,58.82c-1.16,2.55-2.27,5.12-3.32,7.73v0c-.68,1.34-7.24,19.06-14.69,29.8-1,1.4-1.87,2-2.55,2a1.37,1.37,0,0,1-.77-.36c-.3-.25-.45-1-.45-2.35a42.59,42.59,0,0,1,1.27-9.61q1.28-5.43,3-10.55t3.47-9a20.11,20.11,0,0,1,2.65-4.8c.27-.28.47-.4.61-.37s.2-.12.2-.47a2.29,2.29,0,0,0-.71-1.41,7.38,7.38,0,0,0-2-1.46,17,17,0,0,0-3-1.2,13.37,13.37,0,0,0-3.87-.52c-1,0-2.09.61-3.42,1.83a41,41,0,0,0-4.28,4.76q-2.3,2.94-4.74,6.81t-4.73,7.85q-2.29,4-4.33,7.9t-3.47,7.07c.14-.65.33-1.41.55-2.23.36-1.14.71-2.27,1.08-3.35q1.66-5,3-8.28a3.65,3.65,0,0,1,.14-.35,2.32,2.32,0,0,0-1.93-3.18c-4.71-.44-8.69.55-11.15,4.7-.06.24-1.17,2.89-1.24,3.13-2.05,6-7.76,15.42-10.46,15.42a1.45,1.45,0,0,1-.77-.31c-.3-.21-.46-1-.46-2.4A36.24,36.24,0,0,1,200,86.58a83.88,83.88,0,0,1,3-9.35,76.41,76.41,0,0,1,3.47-7.72,20.72,20.72,0,0,1,2.65-4.23c.2-.28.39-.4.56-.36s.25-.12.25-.47a2.24,2.24,0,0,0-.71-1.41,7.38,7.38,0,0,0-2-1.46,16.27,16.27,0,0,0-3-1.21,13.39,13.39,0,0,0-3.88-.52c-.81,0-1.73.7-2.75,2.09l0,0-5.57,10c-.21.4-.41.81-.62,1.23-1.09,2.19-2.23,4.44-3.42,6.73s-2.37,4.56-3.56,6.79-2.31,4.19-3.37,5.9a45.68,45.68,0,0,1-2.85,4.17c-.85,1.08-1.54,1.62-2.09,1.62s-.88-.4-1-1.2a15.28,15.28,0,0,1-.2-2.45,31.1,31.1,0,0,1,.71-6,58.41,58.41,0,0,1,2-7.21q1.28-3.7,2.85-7.3a49.1,49.1,0,0,1,3.37-6.42,23.84,23.84,0,0,1,3.56-4.54,5.29,5.29,0,0,1,3.42-1.73c1.12,0,2.18,1.55,2.78,2.72a.36.36,0,0,0,.68-.12c.29-2.73-.39-6.86-5.28-8.28a21.48,21.48,0,0,0-2.77-.18,12.77,12.77,0,0,0-6.88,1.94,21.38,21.38,0,0,0-5.55,5.07l-.76,1c-.56.52-1.08,1.07-1.6,1.61-1.19,1.31-2.28,2.67-3.33,4-2.1,2.76-4,5.6-5.93,8.45-3.75,5.67-21,35.34-23.25,33.1-.5-.5.23-5.3.37-6.54,2.4-21,13.49-51.43,31.3-83.17,1.74-3.69,2.75-5.76,2.75-5.76a18.54,18.54,0,0,0-6.46-2.43,7,7,0,0,0-4.23.55c-3.27,1.71-19.6,24.39-31.19,40.45-3.45,4.78-6.48,9-8.62,11.86-8.91,12-12,16.78-12.31,17.18.52-1.11,16.92-36.83,21.75-56.21,1.34-5.38,3.44-14.33,3.26-20.17-.61-4.35-2.93-6-6.28-6.41A31.76,31.76,0,0,0,125.54,0a15.63,15.63,0,0,0-2.36.13C50.17,11.78-3.94,46.3.23,79.65c.9,7.26,4.51,13.89,10.36,19.75a.79.79,0,0,0,1.33-.74c-.17-.68-.32-1.37-.45-2.06C5.16,61.68,52.39,23.19,120,5.53c-4.57,9.91-9.75,20.09-15.53,30.36C68.68,99.49,24,142.19,4.73,131.25a11.5,11.5,0,0,1-1.19-.77.49.49,0,0,0-.77.43c.71,10.43,3.83,17.73,9.56,20.7,19.69,10.21,62.73-34.12,96.15-99C112.91,44,116.77,36,120.21,28.16a.33.33,0,0,1,.63.22c-1.33,5-3.32,11.62-6.16,19.52C106.37,71,94.94,92.94,93,97.76c-3.4,8.51,2,14.3,10.86,3.58,7.86-9.56,15.05-21,24.21-33.64,1.12-1.54,2.26-3.1,3.44-4.67,10.86-14.47,14.76-21.79,15.95-21.61.23,0-.52,1.7-1.91,4.53-5.53,11.3-21,41.16-22.18,59.81-.08,1.17-.12,2.3-.13,3.41s0,1.93,0,2.85a1.5,1.5,0,0,0,0,.22,41.12,41.12,0,0,0,1.32,8.45,7.43,7.43,0,0,0,.23.9l0,.12a20.61,20.61,0,0,0,1.47,3.7c.1.18.16.33.29.53l.36.59.39.58c.15.21.34.44.52.66l.57.63c.23.23.51.47.77.69a9,9,0,0,0,.87.65c.35.21.71.41,1.08.59a9.1,9.1,0,0,0,2.47.75,10.32,10.32,0,0,0,1.24.08h.62l.54-.07c.35-.05.71-.11,1-.19a9,9,0,0,0,.87-.28l.82-.32.63-.33a14.22,14.22,0,0,0,3.44-2.72,32.74,32.74,0,0,0,3.74-4.93c1-1.59,1.91-3.16,2.76-4.73,3.37-6.27,6.13-12.51,8.91-18.74,2.19-4.91,4.32-9.81,6.53-14.65-.2,1.15-.4,2.35-.57,3.61a39.56,39.56,0,0,0-.35,4.92q0,7,2.8,10.31a8.9,8.9,0,0,0,7.08,3.3,6,6,0,0,0,3.57-1.37A18.45,18.45,0,0,0,181,101.3,49.43,49.43,0,0,0,184.57,96q1.78-3,3.31-6.28a12.61,12.61,0,0,0-.1,1.57v1.47q0,7,2.8,10.31a8.9,8.9,0,0,0,7.08,3.3q2.55,0,5.15-2.71a37.77,37.77,0,0,0,5-6.65c.1-.15.19-.31.28-.47-.05.55-.08,1.08-.08,1.56a6.49,6.49,0,0,0,1.27,3.92,11.81,11.81,0,0,0,2.91,2.83,8.07,8.07,0,0,0,3.26,1.36,2.54,2.54,0,0,0,2.24-.37,21.05,21.05,0,0,0,2.55-4.66q1.72-3.81,4.18-9T230,81.26a76.31,76.31,0,0,1,6.77-10.42,114.51,114.51,0,0,0-3.1,11.62,49.92,49.92,0,0,0-1.28,10.15q0,7,2.8,10.37a8.86,8.86,0,0,0,7.09,3.35,7,7,0,0,0,5.14-2.71,50.4,50.4,0,0,0,7.23-11.42,30,30,0,0,0-.07,4.67,17.67,17.67,0,0,0,.73,4,10.4,10.4,0,0,0,2.79,4.52,4.74,4.74,0,0,0,2.93,1.27,4.94,4.94,0,0,0,1.88-.16,8.87,8.87,0,0,0,3-1.74,21.06,21.06,0,0,0,2.13-2.08,67.7,67.7,0,0,0,6.5-9c1.36-2.2,2.66-4.43,3.93-6.66-.21,1.06-.39,2.14-.55,3.25a33.51,33.51,0,0,0-.29,6.74,17.47,17.47,0,0,0,.73,4,10.34,10.34,0,0,0,2.79,4.52,1.27,1.27,0,0,0,.43.28,5.37,5.37,0,0,0,2.5.79,5.86,5.86,0,0,0,1.87-.13,9.53,9.53,0,0,0,3.05-1.45,21,21,0,0,0,2.13-1.72,58.11,58.11,0,0,0,6.5-7.47Q300.42,92,303,88.17c-1.69,6.55-2.62,12.87-1.18,16,1,2.28,6.57,2.71,8.43,2.79a4.28,4.28,0,0,0,.61,0A217.28,217.28,0,0,1,316.31,85l1.41.14q2.85.1,5.67,0c1.48,0,2.9-.19,4.32-.33a46.93,46.93,0,0,0-1,8.64q0,7,2.8,10.36a8.85,8.85,0,0,0,7.08,3.35q2.55,0,5.15-2.7a38.66,38.66,0,0,0,5-6.65,72.82,72.82,0,0,0,4.43-8.6c.19-.42.35-.82.53-1.23-.1,1.21-.16,2.41-.16,3.6q0,7.65,3.67,11.62a12,12,0,0,0,9.17,4,12.82,12.82,0,0,0,5.86-1.36,17.73,17.73,0,0,0,4.89-3.67,30.61,30.61,0,0,0,4.07-5.44,55.36,55.36,0,0,0,3.42-6.7,15.11,15.11,0,0,0,5.5-3.66,25.36,25.36,0,0,0,1.74-2.1,47.29,47.29,0,0,0-.15,8.92,23.16,23.16,0,0,0,1.69,7.23A11.92,11.92,0,0,0,394.9,105a8.18,8.18,0,0,0,5.11,1.71,12.87,12.87,0,0,0,6.6-1.86,30.72,30.72,0,0,0,5.61-4.25,11.25,11.25,0,0,0,1.67-1,21.33,21.33,0,0,0,5.16-5.48,30.86,30.86,0,0,0,3.54-7.22,29.56,29.56,0,0,0,1.57-7.29,14.49,14.49,0,0,0-1.46-7.88,5.89,5.89,0,0,0-5.58-3.32A9.63,9.63,0,0,0,412,70a20.84,20.84,0,0,0-4.54,3.85,34.74,34.74,0,0,0-3.91,5.36c-1.19,2-2.27,4-3.22,5.9-.42.84-.7,1.56-1.06,2.35,0,0,0,0,0,.06a67.82,67.82,0,0,1,2.12-10,105.17,105.17,0,0,1,4.08-11.61A106.65,106.65,0,0,1,410.7,55a87.49,87.49,0,0,1,5.72-9A34.64,34.64,0,0,1,422,39.82q2.72-2.26,4.81-2.26c.89,0,1.18.63.88,1.85C427.34,41.08,423.53,46.93,422.23,48.89Zm-44.29,21.5a62.47,62.47,0,0,1-1.38,7.32,73.84,73.84,0,0,1-2.19,7.44h-1.83a2.73,2.73,0,0,0-2.19,1,4.68,4.68,0,0,0-1.07,2.25,3.35,3.35,0,0,0,.36,2.25,2.14,2.14,0,0,0,2.08,1,28.91,28.91,0,0,1-3.66,6q-1.95,2.35-3.67,2.36c-1.22,0-1.94-.93-2.14-2.78a24.55,24.55,0,0,1,.46-7,63.8,63.8,0,0,1,2.39-9,91.71,91.71,0,0,1,3.57-9,37,37,0,0,1,4.07-7c1.43-1.84,2.72-2.77,3.87-2.77.82,0,1.31.73,1.48,2.2A24.34,24.34,0,0,1,377.94,70.39Zm23.21,21.86c1.21-2.27,2.56-4.61,4.08-7a59.18,59.18,0,0,1,4.55-6.34c1.51-1.84,2.78-2.76,3.78-2.76q1,0,.9,2.4a15.49,15.49,0,0,1-1.61,5.74,33.94,33.94,0,0,1-3.63,6.11,26.35,26.35,0,0,1-4.58,4.85,8.61,8.61,0,0,1-3.52,1.87,4,4,0,0,1-1.44-1.78s0-.08,0-.11C400,94.42,400.53,93.44,401.15,92.25Z"/><path class="cls-1" d="M535.44,75.52c-.4.89-.82,1.8-1.25,2.7-4.49,9.3-10,17-15.27,21.84-.68.55-8.83,7-13,4.38-1.45-.91-1.42-5.79-1-10.63,4.45-23.82,10.89-28.95,11.5-29.57.2-.28.39-.4.56-.37s.25-.12.25-.47a2.27,2.27,0,0,0-.71-1.41,7.23,7.23,0,0,0-2-1.46,17,17,0,0,0-3-1.2,13.36,13.36,0,0,0-3.87-.53q-1.23,0-2.76,2.1s0,0,0,0l-7.43,13.79c-.21.4-.34.63-.34.63l.34-.63c.23-.45.58-1.13,1-2q-1.5,3-3.13,6.18-1.79,3.45-3.57,6.78t-3.36,5.9a46.49,46.49,0,0,1-2.86,4.18c-.85,1.08-1.54,1.61-2.08,1.61s-.89-.39-1-1.2a14.13,14.13,0,0,1-.21-2.45,30.43,30.43,0,0,1,.72-6,56.48,56.48,0,0,1,2-7.2q1.27-3.7,2.86-7.31a47.92,47.92,0,0,1,3.36-6.42,25,25,0,0,1,3.56-4.54,5.09,5.09,0,0,1,3.42-1.72c1,0,2,1.27,2.55,2.28a.37.37,0,0,0,.68-.18c.2-3.76-1.1-7.1-5.92-7.88-.6-.05-1.23-.08-1.9-.08a12.73,12.73,0,0,0-6.87,1.93,21.3,21.3,0,0,0-5.56,5.08,35.33,35.33,0,0,0-3.3,5.14c0-.37-.16-.57-.35-.57s-.61.55-1.22,1.63-1.34,2.51-2.21,4.27-1.8,3.74-2.81,5.9-2,4.36-3.13,6.56-2.14,4.3-3.18,6.26a55.07,55.07,0,0,1-2.84,4.88,16.12,16.12,0,0,1-1.37,1.75c-.35.36-3.06,3.65-4.45-2.33-.46-3-.74-6.09-1.17-8.73-.85-5.34-4.47-8-8.43-8.23C453,68,459.53,58.93,462.12,59.35c2.41.4-.45,11.67-5.56,16.31,5,2.92,12.71-1.81,14.21-8.36,1.65-7.21-2.42-14.89-9.44-13.8-5.95.93-14.57,14.36-21,25.62.62-1.67,1.26-3.35,1.88-5l-.32.21c2.77-8.94,4.74-14.84,4.75-14.92q0-.55-1.32-1.23a14.67,14.67,0,0,0-3.11-1.09,17.15,17.15,0,0,0-3.48-.46,3.17,3.17,0,0,0-2.29.56,20.69,20.69,0,0,0-3.05,5.57c-.52,1.23-1,2.57-1.53,4h-.05l-.45,1.46c-.46,1.35-.91,2.77-1.36,4.28-.22.76-.41,1.55-.61,2.33-1.19,4.23-2.21,8.23-3,12a61.31,61.31,0,0,0-1.58,10.63,9.14,9.14,0,0,0,.46,3.19,8.51,8.51,0,0,0,1.41,2.67,7.11,7.11,0,0,0,2.13,1.83,5,5,0,0,0,2.51.68c.66,0,1.67-.73,2.15-2.51l.48-1.75a202.17,202.17,0,0,1,9.73-18.31c.7,4.08,1.29,9.88,2.65,14,3.21,9.61,11.82,10.81,15.26,8.8,6.82-3.09,8.78-15,9.9-17.74l.09-.23c-.13,1.34-.21,2.59-.21,3.72q0,7,2.8,10.31a8.9,8.9,0,0,0,7.08,3.3,6,6,0,0,0,3.57-1.36,19.33,19.33,0,0,0,3.62-3.66A53.16,53.16,0,0,0,492,94.92c.87-1.48,1.68-3,2.46-4.57.66,8.55,4,15.31,10,18.21,10.09,4.9,24.26-2.82,34.14-17.62C538.72,85,537.66,79.63,535.44,75.52Z"/><path class="cls-2" d="M273.51,143.17V117.53h10.18a6.94,6.94,0,0,1,5.3,2,8.8,8.8,0,0,1,0,10.77,6.94,6.94,0,0,1-5.3,2h-7.1v10.95Zm3.08-13.66h7.1a4,4,0,0,0,2.84-1,3.58,3.58,0,0,0,1-2.72v-1.91a3.59,3.59,0,0,0-1-2.72,4,4,0,0,0-2.84-1h-7.1Z"/><path class="cls-2" d="M296.51,143.17v-19h2.93v3.5h.18a5.69,5.69,0,0,1,1.83-2.43,5.63,5.63,0,0,1,3.63-1.07h1.13v2.94h-1.72a6.59,6.59,0,0,0-3.71.9,2.66,2.66,0,0,0-1.34,2.26v12.86Z"/><path class="cls-2" d="M318.33,143.61a8.49,8.49,0,0,1-3.49-.69,7.67,7.67,0,0,1-2.68-2,9.14,9.14,0,0,1-1.72-3.12,14.21,14.21,0,0,1,0-8.17,9.2,9.2,0,0,1,1.72-3.15,7.76,7.76,0,0,1,2.68-2,8.49,8.49,0,0,1,3.49-.7,8.08,8.08,0,0,1,3.41.7,7.6,7.6,0,0,1,2.56,1.92,8.61,8.61,0,0,1,1.63,2.91,11.53,11.53,0,0,1,.57,3.7v1.39H312.91v.88a6.39,6.39,0,0,0,.39,2.26,5.16,5.16,0,0,0,1.1,1.82,5,5,0,0,0,1.75,1.22,6.14,6.14,0,0,0,2.37.44,5.69,5.69,0,0,0,3.13-.85,5.54,5.54,0,0,0,2.07-2.42l2.08,1.51a7.29,7.29,0,0,1-2.85,3.16A8.64,8.64,0,0,1,318.33,143.61Zm0-17.37a5.55,5.55,0,0,0-2.19.42,5,5,0,0,0-1.71,1.18,5.73,5.73,0,0,0-1.11,1.81,6.21,6.21,0,0,0-.41,2.28v.26h10.44v-.4a5.82,5.82,0,0,0-1.37-4A4.69,4.69,0,0,0,318.33,126.24Z"/><path class="cls-2" d="M332.8,143.17v-19h2.93v3.06h.14a10,10,0,0,1,.75-1.37,4.93,4.93,0,0,1,1-1.11,4.72,4.72,0,0,1,1.41-.74,6,6,0,0,1,1.9-.28,6.86,6.86,0,0,1,3.45.9,5.39,5.39,0,0,1,2.34,2.93h.07a5.83,5.83,0,0,1,1.92-2.68,5.93,5.93,0,0,1,3.83-1.15,5.61,5.61,0,0,1,4.52,1.9,7.91,7.91,0,0,1,1.63,5.34v12.16h-2.93V131.5a6.23,6.23,0,0,0-1-3.83,3.69,3.69,0,0,0-3.14-1.29,6.42,6.42,0,0,0-1.67.22,4.38,4.38,0,0,0-1.41.67,3.14,3.14,0,0,0-1,1.12,3.37,3.37,0,0,0-.37,1.6v13.18h-2.93V131.5a6.24,6.24,0,0,0-1-3.83,3.64,3.64,0,0,0-3.08-1.29,6.55,6.55,0,0,0-1.68.22,4.39,4.39,0,0,0-1.43.67,3.4,3.4,0,0,0-1,1.12,3.26,3.26,0,0,0-.38,1.6v13.18Z"/><path class="cls-2" d="M367.69,119.77a1.77,1.77,0,0,1-1.37-.46,1.7,1.7,0,0,1-.42-1.19v-.48a1.72,1.72,0,0,1,.42-1.2,2.29,2.29,0,0,1,2.75,0,1.72,1.72,0,0,1,.42,1.2v.48a1.7,1.7,0,0,1-.42,1.19A1.78,1.78,0,0,1,367.69,119.77Zm-1.46,4.44h2.93v19h-2.93Z"/><path class="cls-2" d="M388.49,140.12h-.14a9.15,9.15,0,0,1-.72,1.29,4.67,4.67,0,0,1-2.54,1.91,6.38,6.38,0,0,1-2,.29,6,6,0,0,1-4.65-1.89,7.64,7.64,0,0,1-1.73-5.34V124.21h2.93v11.68q0,5.12,4.32,5.12a6.91,6.91,0,0,0,1.71-.22,4.65,4.65,0,0,0,1.46-.67,3.14,3.14,0,0,0,1.41-2.76V124.21h2.93v19h-2.93Z"/><path class="cls-2" d="M399.11,143.17v-19H402v3.06h.15a10,10,0,0,1,.75-1.37,4.88,4.88,0,0,1,1-1.11,4.72,4.72,0,0,1,1.41-.74,6,6,0,0,1,1.91-.28,6.82,6.82,0,0,1,3.44.9,5.35,5.35,0,0,1,2.34,2.93h.07a5.68,5.68,0,0,1,5.75-3.83,5.65,5.65,0,0,1,4.53,1.9A8,8,0,0,1,425,131v12.16h-2.93V131.5a6.23,6.23,0,0,0-1-3.83,3.72,3.72,0,0,0-3.15-1.29,6.48,6.48,0,0,0-1.67.22,4.59,4.59,0,0,0-1.41.67,3.15,3.15,0,0,0-1.35,2.72v13.18h-2.93V131.5a6.23,6.23,0,0,0-1-3.83,3.64,3.64,0,0,0-3.08-1.29,6.67,6.67,0,0,0-1.68.22,4.48,4.48,0,0,0-1.43.67,3.51,3.51,0,0,0-1,1.12A3.26,3.26,0,0,0,402,130v13.18Z"/><path class="cls-2" d="M442.94,143.17V117.53H446v22.93h10.87v2.71Z"/><path class="cls-2" d="M463.92,119.77a1.77,1.77,0,0,1-1.37-.46,1.7,1.7,0,0,1-.42-1.19v-.48a1.72,1.72,0,0,1,.42-1.2,1.81,1.81,0,0,1,1.37-.46,1.83,1.83,0,0,1,1.38.46,1.72,1.72,0,0,1,.42,1.2v.48a1.7,1.7,0,0,1-.42,1.19A1.8,1.8,0,0,1,463.92,119.77Zm-1.46,4.44h2.93v19h-2.93Z"/><path class="cls-2" d="M474.1,126.82H471v-2.61h3.07v-3.82a4.74,4.74,0,0,1,1-3.19,3.84,3.84,0,0,1,3.11-1.22h2.86v2.61H477v5.62h4.07v2.61H477v16.35H474.1Z"/><path class="cls-2" d="M493.36,143.61a8.57,8.57,0,0,1-3.5-.69,7.72,7.72,0,0,1-2.67-2,9.14,9.14,0,0,1-1.72-3.12,14.21,14.21,0,0,1,0-8.17,9.2,9.2,0,0,1,1.72-3.15,7.82,7.82,0,0,1,2.67-2,8.58,8.58,0,0,1,3.5-.7,8.08,8.08,0,0,1,3.41.7,7.6,7.6,0,0,1,2.56,1.92A8.61,8.61,0,0,1,501,129.3a11.53,11.53,0,0,1,.57,3.7v1.39H487.94v.88a6.39,6.39,0,0,0,.39,2.26,5.16,5.16,0,0,0,1.1,1.82,5,5,0,0,0,1.75,1.22,6.13,6.13,0,0,0,2.36.44,5.72,5.72,0,0,0,3.14-.85,5.46,5.46,0,0,0,2.06-2.42l2.09,1.51a7.29,7.29,0,0,1-2.85,3.16A8.64,8.64,0,0,1,493.36,143.61Zm0-17.37a5.52,5.52,0,0,0-2.19.42,5,5,0,0,0-1.71,1.18,5.55,5.55,0,0,0-1.11,1.81,6.21,6.21,0,0,0-.41,2.28v.26h10.44v-.4a5.82,5.82,0,0,0-1.37-4A4.69,4.69,0,0,0,493.36,126.24Z"/></g></g></svg>